PathFileType	4	(X/Y/Z)	D:\TRACE\spot_10-12-23\spot_arm_body_motion_1_5-v60.trc
DataRate	CameraRate	NumFrames	NumMarkers	Units	OrigDataRate	OrigDataStartFrame	OrigNumFrames
100.00	100.00	      24	9	mm	100.00	3501	      7000
Frame#	Time	front left toe			Front right toe			aft left toe			aft right toe			Arm			FL body			FR body			AL Body			AR Body			
		X1	Y1	Z1	X2	Y2	Z2	X3	Y3	Z3	X4	Y4	Z4	X5	Y5	Z5	X6	Y6	Z6	X7	Y7	Z7	X8	Y8	Z8	X9	Y9	Z9	

3501	35.000	-202.46895	14.33521	-450.45316	163.31575	9.34562	-430.74228	-222.03792	22.83631	136.62666	115.11676	17.15592	114.68872	-8.16552	737.20105	-760.25256	-67.51608	579.35858	-533.85144	86.19433	584.18427	-529.16504	-101.75439	569.83325	348.11691	39.74270	568.83252	355.29324	
3502	35.010	-203.25284	14.77928	-450.22266	162.97380	10.01897	-430.58667	-221.98503	22.62516	137.02559	114.76736	16.85336	114.73005	-7.77293	737.24359	-760.22351	-68.41962	579.75781	-532.73138	85.38076	584.82452	-528.26135	-100.71707	569.52338	348.87955	40.87424	568.49042	356.19916	
3503	35.020	-203.86493	15.13563	-450.02621	162.53725	9.91399	-430.98267	-222.33620	22.70472	137.32191	114.31575	16.72380	114.74871	-7.47827	737.28094	-760.22345	-68.83508	580.24866	-531.76318	84.52586	585.01740	-527.19653	-99.51568	569.09137	350.15210	41.94345	568.19537	356.93094	
3504	35.030	-204.33879	15.41758	-449.89343	162.05626	10.11501	-431.05865	-223.06517	23.12001	137.13680	113.84933	16.59242	114.76967	-7.32751	737.37335	-760.25623	-68.99702	580.53766	-530.62854	84.51195	585.49207	-526.44611	-98.89025	568.75482	351.08066	42.80033	567.84247	357.87308	
3505	35.040	-204.69962	15.67456	-449.78064	159.59723	9.92340	-431.71326	-223.53960	23.04238	137.26392	113.45439	16.70464	114.90300	-7.71536	737.40125	-760.33423	-68.99444	581.01801	-529.76520	84.40302	585.69708	-525.38397	-98.39703	568.77228	352.10379	42.97639	567.47699	358.70950	
3506	35.050	-205.17305	15.73434	-449.82877	159.10010	10.41123	-431.64877	-224.31847	22.80643	137.41840	112.81020	16.98243	114.91875	-8.20874	737.43866	-760.43640	-68.42374	581.41901	-528.63702	85.15963	585.99115	-524.63312	-98.03781	568.35229	353.01608	43.35535	567.12036	359.88370	
3507	35.060	-207.36650	20.62191	-447.56821	158.70091	9.77831	-431.39227	-224.92796	23.23442	137.61798	112.16711	16.01731	115.45470	-8.80756	737.51105	-760.56030	-67.94154	581.91370	-527.79083	85.77522	586.25555	-523.68182	-98.17020	567.94556	353.97162	43.15220	566.76074	360.73975	
3508	35.070	-207.53737	31.23119	-443.10147	159.95270	9.56169	-430.44455	-224.68289	23.79401	137.15056	112.92962	15.53551	115.88467	-9.51904	737.71466	-760.62433	-66.64353	581.32642	-527.09314	86.97649	586.45453	-522.50720	-98.81248	567.13593	354.37320	42.52038	566.77130	362.04962	
3509	35.080	-206.05016	43.31248	-439.56924	159.73401	9.47567	-430.47638	-224.89342	23.01945	137.44035	112.17058	16.02090	115.84399	-10.14887	737.81781	-760.58380	-65.67291	580.77429	-526.68054	87.84316	586.42126	-521.88257	-99.58091	567.18420	355.01904	41.74287	566.90771	362.58484	
3510	35.090	-210.05263	55.77710	-439.74960	159.35764	9.32815	-431.09604	-225.08902	22.43359	137.68364	110.80856	16.39604	116.16510	-10.54376	737.88306	-760.50964	-64.73041	580.29468	-525.76080	88.82999	586.37158	-520.77051	-99.89811	567.19495	356.07520	41.33762	566.96692	363.40186	
3511	35.100	-212.66608	68.83182	-444.33295	159.13904	9.78453	-429.75931	-225.70711	22.87179	137.68190	110.99142	16.17676	116.15429	-11.12709	738.13770	-760.19232	-64.56861	579.85156	-525.03009	88.58876	586.22864	-519.59326	-100.70484	566.68903	356.58044	40.63602	566.95856	364.10040	
3512	35.110	-215.80951	81.38386	-449.55002	158.61362	10.08200	-429.97324	-225.25165	22.31049	137.80371	111.21416	15.96050	116.44080	-12.32778	738.26099	-759.90808	-64.71037	580.08807	-524.29083	89.05810	586.50214	-519.13416	-101.21043	566.16724	357.17264	40.23942	566.33301	365.33041	
3513	35.120	-214.38771	93.57765	-453.06381	158.29160	10.73258	-429.97647	-226.03534	23.25277	137.96680	110.38952	15.82341	116.20412	-13.49296	738.28290	-759.74371	-64.90071	580.67096	-523.35876	88.54887	586.85602	-518.27350	-101.10572	565.85455	358.53964	40.19398	565.92938	365.71585	
3514	35.130	-215.75293	102.78750	-452.18582	158.22545	11.32397	-429.81470	-226.29758	23.24630	138.28893	110.39181	15.66797	116.44317	-14.27028	738.44910	-759.23248	-65.72602	581.03510	-522.61652	87.56092	587.15839	-517.29395	-101.68673	565.06311	358.80414	39.57367	565.26959	366.39047	
3515	35.140	-214.84682	110.94824	-449.90097	158.06282	11.70963	-429.86569	-226.23729	22.90485	138.44606	110.50880	15.59656	116.61841	-14.49151	738.48242	-758.89868	-66.39811	581.30518	-521.90039	87.15598	587.71716	-516.99371	-102.12676	564.47534	359.43985	39.50493	564.81165	367.77731	
3516	35.150	-215.17102	118.00286	-447.60782	159.68848	12.92084	-428.15552	-226.59599	22.79361	138.78592	110.14850	15.67656	116.58391	-14.31683	738.46014	-758.68475	-67.41173	581.54388	-521.10516	86.04256	587.90155	-515.82129	-102.45527	564.25970	360.37741	39.00895	564.55389	367.96417	
3517	35.160	-218.18292	123.67143	-446.69162	159.25388	13.32288	-428.06741	-226.82027	22.68287	139.06741	109.99122	15.67721	116.81700	-13.80453	738.48926	-758.43066	-68.63521	581.62683	-520.37604	85.15439	588.37024	-515.57916	-103.11643	563.91833	361.13437	38.28025	564.42438	368.55783	
3518	35.170	-219.78888	128.14459	-448.22137	158.72113	13.59065	-428.05508	-226.88109	22.41867	139.15363	109.97919	15.69795	116.98148	-13.70154	738.49213	-758.27753	-69.82865	581.88507	-519.64813	83.50872	588.70844	-514.93262	-103.72052	563.63733	361.88217	37.43502	564.23547	369.33060	
3519	35.180	-221.83601	131.33554	-450.17841	158.25636	13.85795	-428.17212	-227.03162	22.42387	139.28226	109.75797	15.75071	117.10355	-13.63523	738.36456	-758.26038	-71.03103	582.32593	-518.76392	82.31992	588.82129	-513.82172	-104.48544	563.54114	362.73117	37.06803	563.77179	370.21558	
3520	35.190	-223.28220	131.70416	-451.38510	158.23518	14.30613	-427.88379	-227.15561	22.27938	139.34459	109.64323	15.72012	117.26955	-13.59972	738.41425	-758.14850	-72.30032	582.66223	-518.22565	81.42350	589.35547	-513.27307	-105.66255	562.95441	363.27759	36.06680	563.44775	370.97501	
3521	35.200	-224.62076	130.81764	-451.14194	158.28665	14.83223	-427.70877	-227.25227	21.92543	139.31046	109.64794	15.78790	117.35535	-13.77394	738.42255	-758.14514	-73.50246	582.81226	-517.63159	80.23586	589.62390	-512.87476	-106.94255	562.68152	364.17850	34.43234	563.12555	371.43130	
3522	35.210	-226.02296	130.36247	-449.26971	158.34801	14.98111	-427.38586	-227.40512	21.81531	139.36653	109.36438	15.89538	117.43852	-14.04602	738.67981	-758.29938	-74.52115	582.61829	-517.06311	78.90965	589.50708	-512.34088	-108.40214	562.59796	364.36212	32.99532	563.09753	371.91983	
3523	35.220	-228.30190	131.38602	-445.69437	158.86310	14.83510	-427.05850	-227.50511	21.66482	139.29826	109.23530	16.15019	117.43696	-14.72602	739.65820	-758.39801	-75.21699	581.93530	-516.74640	77.78497	588.88745	-511.49457	-110.41624	562.54578	364.70328	31.16556	563.52954	372.53326	
3524	35.230	-231.48100	131.99011	-439.83847	159.29617	14.87556	-426.83041	-227.59666	21.37386	139.29173	109.25549	16.89125	117.55171	-15.85664	741.34796	-757.93146	-76.33714	580.89368	-516.58008	77.10823	588.11163	-511.33679	-112.25210	562.80298	364.99039	29.04940	563.90417	372.80432	
